# xmcd CD database file
#
# Track frame offsets:
#	150
#	12429
#	22122
#	35564
#	48593
#	61797
#	73523
#	87152
#	100331
#	113077
#	126228
#	140248
#	152890
#	166174
#	178643
#	191338
#	204403
#	217444
#	226737
#	240812
#
# Disc length: 3387 seconds
#
# Revision: 0
# Processed by: cddbd v1.5.2PL0 Copyright (c) Steve Scherf et al.
# Submitted via: CDex 1.51
#
DISCID=170d3914
DTITLE=Various Artist - Rock Awhile
DYEAR=2003
DGENRE=Blues
TTITLE0=Goree Carter And His Hep Cats-Rock Awhile
TTITLE1=Lonnie Lyons Combo-Flychick Bounce
TTITLE2=Jessie Thomas-Let's Have Some Fun
TTITLE3=Goree Carter And His Hepcats-Hey Hey
TTITLE4=Lonnie Lyons, His Piano And Orchestra-Down In The Groovy
TTITLE5=Carl Campbell And Orchestra-Oo Wee Baby
TTITLE6=L C Williams With J C Conney's Combo-Louisiana Boogie
TTITLE7=Goree Carter And His Hepcats-My Love Coming Down
TTITLE8=Joe Houston Trio And Orchestra-Jumpin' The Blues
TTITLE9=Clarence Samuels And Orchestra-I'm Gonna Leave You Baby
TTITLE10=Goree Carter-Come On Let's Boogie
TTITLE11=Carl Capbell And Orchestra-Gettin' High
TTITLE12=Lonnie Lyons His Piano And Orchestra-Sneaky Joe
TTITLE13=Joe Papoose Fritz And His Orchestra-Make Her See Things My Way
TTITLE14=Fatman Smith and Caladonia's Boys Orchestra-I Wonder Why
TTITLE15=Smilin' Smokey's Lynn With Bill Harvey And His Orchestra-Leave My Girl Alone
TTITLE16=Memphis Slim And His Orchestra-Sittin' And Thinkin'
TTITLE17=Peppermint Harris-Blues Pick On Me
TTITLE18=Goree Carter-Tell Me Is There Still A Chance
TTITLE19=Elmore Nixon With Henry Hayes And His Rhythm Kings-I Went To See A Gypsy
EXTD=YEAR: 2003
EXTT0=
EXTT1=
EXTT2=
EXTT3=
EXTT4=
EXTT5=
EXTT6=
EXTT7=
EXTT8=
EXTT9=
EXTT10=
EXTT11=
EXTT12=
EXTT13=
EXTT14=
EXTT15=
EXTT16=
EXTT17=
EXTT18=
EXTT19=
PLAYORDER=
